<svg xmlns="http://www.w3.org/2000/svg" version="1.1" xmlns:xlink="http://www.w3.org/1999/xlink" width="2000" height="130" viewBox="0 0 2000 130"><svg xml:space="preserve" width="2000" height="130" data-version="2" data-id="lg_hnHp2lhLsc8KoaFqmP" viewBox="0 0 567 130" x="0" y="0"><rect width="100%" height="100%" fill="transparent"></rect><circle r="59.32" fill="#3a424c" transform="translate(68.88 65)scale(1.0674)"></circle><path fill="#3a424c" d="M185.9 100.34q-8.86 0-15.61-3.72-6.75-3.73-10.53-10.97-3.78-7.23-3.78-17.82V28.2h10.05v40.71q0 7.46 2.37 12.64 2.38 5.18 6.97 7.94 4.59 2.75 10.96 2.75 3.13 0 5.56-.59 2.43-.6 4.7-1.57 3.56-2.48 5.45-7.83 1.89-5.34 1.89-13.34V28.2h8v38.55q0 8.86-1.73 15.29-1.73 6.42-5.08 10.42-3.35 3.99-8.21 5.94-4.86 1.94-11.01 1.94M162.57 35l-14.9-1.73.1-5.07h15.12Zm1.94.43-.1-7.23h10.15l.65 3.45q-2.38 1.08-5.19 2-2.81.92-5.51 1.78m44.72-.43-14.91-1.73.11-5.07h15.12Zm1.18.43-.1-7.23h10.15l.65 3.45q-2.38 1.08-5.19 2-2.81.92-5.51 1.78"></path><rect width="73.44" height="72.14" x="-36.72" y="-36.07" fill="none" rx="0" ry="0" transform="translate(184.89 64.77)"></rect><path fill="#3a424c" d="M229.96 98.4V50.12l5.29-3.99 4.32 3.78V98.4Zm33.37 0V66.43q0-6.59-2.05-9.13-2.05-2.53-4.86-2.53-2.16 0-5.13 1.24-2.97 1.24-6.1 3.08-3.13 1.83-5.72 3.88l-1.95-4.53q5.08-3.57 9.88-6.32 4.81-2.75 8.54-4.37 3.72-1.62 5.67-1.62 2.05.32 3.99 1.51 1.95 1.19 3.51 2.7 1.57 1.51 2.32 3.02.54.97.87 2.49.32 1.51.48 3.94.17 2.43.17 6.21v32.4Zm-41.47-43.85-1.29-5.08q3.24-1.51 7.29-2.37 4.05-.87 7.39-.97l1.41 2.7-4.75 4.96Zm.97 43.85-.54-3.57q1.95-.97 5.24-2.05 3.3-1.08 5.35-1.62l-1.51 7.24Zm13.07 0 .11-7.24q2.81.22 5.78.7 2.97.49 4.8 1.35l-.64 5.19Zm21.82 0-.54-3.57q1.94-.97 5.24-2.05 3.29-1.08 5.34-1.62l-1.51 7.24Zm11.66 0 .11-7.24q2.81.22 5.99.7 3.19.49 5.03 1.35l-.65 5.19Z"></path><rect width="59.94" height="52.27" x="-29.97" y="-26.14" fill="none" rx="0" ry="0" transform="translate(251.04 72.77)"></rect><path fill="#3a424c" d="M293.68 98.4V50.12l5.29-3.99 4.32 3.78V98.4Zm-7.67 0-.54-3.57q1.95-.97 5.24-2.05 3.3-1.08 5.35-1.62l-1.51 7.24Zm14.37 0 .11-7.24q2.8.22 5.77.7 2.97.49 4.81 1.35l-.65 5.19Zm-14.8-43.85-1.29-5.08q3.24-1.51 7.29-2.37 4.05-.87 7.39-.97l1.41 2.7-4.75 4.96Zm13.39-18.04q-2.05-.86-4.53-2.75-2.49-1.89-3.78-3.73 1.19-2.48 3.02-4.8 1.84-2.32 3.57-3.4 2.26.86 4.59 2.86 2.32 2 3.51 3.62-.76 2.16-2.65 4.53-1.89 2.38-3.73 3.67"></path><rect width="26.78" height="76.57" x="-13.39" y="-38.28" fill="none" rx="0" ry="0" transform="translate(298.18 60.62)"></rect><path fill="#3a424c" d="M341.85 100.02q-6.59 0-11.56-2.16-4.96-2.16-8.31-5.83-3.35-3.68-4.97-8.32-1.62-4.64-1.62-9.72 0-5.4 1.78-10.48 1.78-5.07 5.02-9.07 3.24-3.99 7.83-6.37t10.1-2.38q4.21 0 7.78 1.41 3.56 1.4 6.21 3.94 2.64 2.54 4.05 5.99 1.4 3.46 1.29 7.56l-9.18 3.78q.54-4.75-1.4-8.53-1.94-3.78-5.67-5.83-3.73-2.05-8.48-1.73-3.35 1.73-5.34 4.97-2 3.24-2.92 7.02-.92 3.78-.92 7.45 0 6.37 2.38 10.86 2.37 4.48 6.37 6.85 4 2.38 8.96 2.38 3.24 0 6.7-.97t7.13-2.59l1.62 4.64Zm11.45-29.38-28.62-.54v-5.61l33.59-1.52 1.18 1.62Z"></path><rect width="44.1" height="54.33" x="-22.05" y="-27.16" fill="none" rx="0" ry="0" transform="translate(337.94 73.36)"></rect><path fill="#3a424c" d="m382.35 98.61-17.39-50.65 11.02-.11 9.93 31.86 1.52 11.56h2.59q2.27-6.7 4.48-14.2 2.21-7.51 4.27-15.07 2.05-7.56 3.67-14.15h10.47q-3.99 11.99-8.58 25.11-4.59 13.13-9.45 25.11-1.62.54-3.78.81-2.16.27-4.38.17-2.21-.11-4.37-.44m-8.42-44.71-13.07-.75.11-5.3h15.01Zm-1.41 1.62 1.51-7.67h8.54l.64 3.89q-2.59 1.08-5.23 2-2.65.92-5.46 1.78m35.75-1.62-13.07-.75.11-5.3h15.01Zm-1.4 1.62 1.51-7.67h8.53l.65 3.89q-2.59 1.08-5.24 2-2.65.92-5.45 1.78"></path><rect width="56.7" height="51.26" x="-28.35" y="-25.63" fill="none" rx="0" ry="0" transform="translate(389.71 73.98)"></rect><path fill="#3a424c" d="M442.94 100.02q-6.59 0-11.56-2.16-4.97-2.16-8.31-5.83-3.35-3.68-4.97-8.32-1.62-4.64-1.62-9.72 0-5.4 1.78-10.48 1.78-5.07 5.02-9.07 3.24-3.99 7.83-6.37t10.1-2.38q4.21 0 7.78 1.41 3.56 1.4 6.21 3.94 2.64 2.54 4.05 5.99 1.4 3.46 1.29 7.56l-9.18 3.78q.54-4.75-1.4-8.53-1.95-3.78-5.67-5.83-3.73-2.05-8.48-1.73-3.35 1.73-5.35 4.97-1.99 3.24-2.91 7.02-.92 3.78-.92 7.45 0 6.37 2.38 10.86 2.37 4.48 6.37 6.85 3.99 2.38 8.96 2.38 3.24 0 6.7-.97 3.45-.97 7.13-2.59l1.62 4.64Zm11.45-29.38-28.62-.54v-5.61l33.58-1.52 1.19 1.62Z"></path><rect width="44.1" height="54.33" x="-22.05" y="-27.16" fill="none" rx="0" ry="0" transform="translate(439.03 73.36)"></rect><path fill="#3a424c" d="M472.96 98.4V50.12l5.29-3.99 4.32 3.78V98.4Zm33.37 0V66.43q0-6.59-2.05-9.13-2.05-2.53-4.86-2.53-2.16 0-5.13 1.24-2.97 1.24-6.1 3.08-3.13 1.83-5.72 3.88l-1.95-4.53q5.08-3.57 9.88-6.32 4.81-2.75 8.54-4.37 3.72-1.62 5.67-1.62 2.05.32 3.99 1.51 1.95 1.19 3.51 2.7 1.57 1.51 2.32 3.02.54.97.87 2.49.32 1.51.48 3.94.17 2.43.17 6.21v32.4Zm-41.47-43.85-1.29-5.08q3.24-1.51 7.29-2.37 4.05-.87 7.39-.97l1.41 2.7-4.75 4.96Zm.97 43.85-.54-3.57q1.95-.97 5.24-2.05 3.3-1.08 5.35-1.62l-1.51 7.24Zm13.07 0 .11-7.24q2.81.22 5.78.7 2.97.49 4.8 1.35l-.64 5.19Zm21.82 0-.54-3.57q1.94-.97 5.24-2.05 3.29-1.08 5.34-1.62l-1.51 7.24Zm11.66 0 .11-7.24q2.81.22 5.99.7 3.19.49 5.03 1.35l-.65 5.19Z"></path><rect width="59.94" height="52.27" x="-29.97" y="-26.14" fill="none" rx="0" ry="0" transform="translate(494.04 72.77)"></rect><path fill="#3a424c" d="M546.19 100.02q-2.27.11-4.81-1.19-2.54-1.3-4.32-3.46-1.78-2.16-1.78-4.42V49.26l4.53-14.47h5.08v50.43q0 3.24.76 4.54.75 1.29 2.8 1.29 2.06 0 4.81-.81 2.75-.81 5.13-1.67l1.84 4.97Zm-17.61-43.96-.75-5.18q3.24-1.51 6.31-2.16 3.08-.65 5.89-.97l2.48 2.7-4.75 5.4Zm8.64.11v-8.32h22.79l.43 3.14-5.07 5.18Z"></path><rect width="32.61" height="65.27" x="-16.3" y="-32.64" fill="none" rx="0" ry="0" transform="translate(544.63 67.93)"></rect><path fill="#f8efed" d="M71.69 89.57q-5.83 0-10.26-2.45-4.44-2.45-6.93-7.21-2.48-4.75-2.48-11.71V42.14h6.6v26.77q0 4.9 1.56 8.31 1.57 3.4 4.58 5.21 3.02 1.82 7.21 1.82 2.06 0 3.66-.4 1.59-.39 3.09-1.02 2.34-1.64 3.58-5.15 1.24-3.52 1.24-8.77V42.14h5.26v25.35q0 5.82-1.14 10.05-1.13 4.22-3.34 6.85-2.2 2.62-5.39 3.9-3.2 1.28-7.24 1.28M56.35 46.62l-9.8-1.14.07-3.34h9.94Zm1.28.28-.07-4.76h6.67l.43 2.27q-1.56.71-3.41 1.32-1.85.6-3.62 1.17m29.39-.28-9.8-1.14.08-3.34h9.94Zm.78.28-.07-4.76h6.68l.42 2.27q-1.56.71-3.41 1.32-1.84.6-3.62 1.17" paint-order="stroke"></path><rect width="48.28" height="47.43" x="-24.14" y="-23.71" fill="none" rx="0" ry="0" transform="translate(71.19 66.36)"></rect></svg></svg>